<svg width="64" height="65" viewBox="0 0 64 65" fill="none" xmlns="http://www.w3.org/2000/svg">
<mask id="mask0_2661_8422" style="mask-type:alpha" maskUnits="userSpaceOnUse" x="0" y="0" width="64" height="65">
<rect y="0.754639" width="64" height="64" fill="#C4C4C4"/>
</mask>
<g mask="url(#mask0_2661_8422)">
<path d="M25.75 26.4973H28.75" stroke="#111111" stroke-width="1.5" stroke-linecap="round" stroke-linejoin="round"/>
<path d="M25.75 29.4973H28.75" stroke="#111111" stroke-width="1.5" stroke-linecap="round" stroke-linejoin="round"/>
<path d="M25.75 32.4973H28.75" stroke="#111111" stroke-width="1.5" stroke-linecap="round" stroke-linejoin="round"/>
<path d="M35.75 26.4973H38.75" stroke="#111111" stroke-width="1.5" stroke-linecap="round" stroke-linejoin="round"/>
<path d="M35.75 29.4973H38.75" stroke="#111111" stroke-width="1.5" stroke-linecap="round" stroke-linejoin="round"/>
<path d="M35.75 32.4973H38.75" stroke="#111111" stroke-width="1.5" stroke-linecap="round" stroke-linejoin="round"/>
<path d="M28.75 50.9973L35.75 50.9973" stroke="#111111" stroke-width="1.5" stroke-linecap="round" stroke-linejoin="round"/>
<path d="M32.25 44.4973V50.9973" stroke="black" stroke-width="1.5"/>
<path d="M25.75 35.4973H38.75" stroke="#111111" stroke-width="1.5" stroke-linecap="round" stroke-linejoin="round"/>
<path fill-rule="evenodd" clip-rule="evenodd" d="M31.75 16.7588C29.2795 16.873 27.0202 17.8305 25.2999 19.3401L26.3628 20.4029C27.7996 19.1669 29.6754 18.3711 31.75 18.2605V16.7588ZM32.75 18.2607C34.7537 18.368 36.5723 19.1144 37.9889 20.2792L39.0533 19.2148C37.3521 17.778 35.1506 16.8704 32.75 16.7589V18.2607ZM39.7851 19.8972L38.7239 20.9584C40.1395 22.4276 41 24.372 41 26.4803V30.4973C41 30.9115 41.3358 31.2473 41.75 31.2473C42.1642 31.2473 42.5 30.9115 42.5 30.4973V26.4803C42.5 23.9363 41.4656 21.6272 39.7851 19.8972ZM25.6436 21.098L24.5816 20.036C22.9798 21.7498 22 24.0038 22 26.4803V30.4973C22 30.9115 22.3358 31.2473 22.75 31.2473C23.1642 31.2473 23.5 30.9115 23.5 30.4973V26.4803C23.5 24.438 24.3069 22.5496 25.6436 21.098Z" fill="#111111"/>
<path fill-rule="evenodd" clip-rule="evenodd" d="M31.75 13.7563C28.4449 13.8744 25.4283 15.1614 23.16 17.2003L24.2221 18.2624C26.2078 16.4983 28.8404 15.3732 31.75 15.2574V13.7563ZM32.75 15.2575C35.5886 15.3712 38.1639 16.4454 40.132 18.1363L41.195 17.0733C38.9436 15.1086 35.9848 13.8727 32.75 13.7565V15.2575ZM41.9232 17.7593L40.8622 18.8203C42.8102 20.8097 44 23.4651 44 26.355V29.4975C44 29.9117 44.3358 30.2475 44.75 30.2475C45.1642 30.2475 45.5 29.9117 45.5 29.4975V26.355C45.5 23.0302 44.1363 20.0098 41.9232 17.7593ZM23.5037 18.9582L22.4422 17.8968C20.3084 20.1321 19 23.0975 19 26.355V29.4975C19 29.9117 19.3358 30.2475 19.75 30.2475C20.1642 30.2475 20.5 29.9117 20.5 29.4975V26.355C20.5 23.5313 21.6353 20.9316 23.5037 18.9582Z" fill="#111111"/>
<path fill-rule="evenodd" clip-rule="evenodd" d="M31.75 10.7546C27.6102 10.8751 23.8362 12.492 21.0209 15.0612L22.0826 16.1229C24.6158 13.8292 28.0056 12.3743 31.75 12.2553V10.7546ZM32.75 12.2554C36.4233 12.373 39.7557 13.7762 42.2728 15.9954L43.3351 14.9331C40.5355 12.4391 36.8191 10.8741 32.75 10.7547V12.2554ZM44.061 15.6214L43.0001 16.6823C45.4806 19.1916 47 22.5581 47 26.2295V28.4974C47 28.9116 47.3358 29.2474 47.75 29.2474C48.1642 29.2474 48.5 28.9116 48.5 28.4974V26.2295C48.5 22.1236 46.8068 18.3919 44.061 15.6214ZM21.3647 16.8192L20.3035 15.758C17.6374 18.514 16 22.1907 16 26.2295L16 28.4974C16 28.9116 16.3358 29.2474 16.75 29.2474C17.1642 29.2474 17.5 28.9116 17.5 28.4974L17.5 26.2295C17.5 22.6244 18.9641 19.3133 21.3647 16.8192Z" fill="#111111"/>
<path fill-rule="evenodd" clip-rule="evenodd" d="M32.2492 44.4973C28.6735 44.4973 25.75 41.6428 25.75 38.1532V26.8414C25.75 23.3519 28.6735 20.4973 32.2492 20.4973C35.825 20.4973 38.75 23.3519 38.75 26.8414V38.1532C38.75 41.6428 35.825 44.4973 32.2492 44.4973Z" stroke="#111111" stroke-width="1.5" stroke-linecap="round" stroke-linejoin="round"/>
</g>
</svg>
