<svg width="90" height="23" viewBox="0 0 90 23" fill="none" xmlns="http://www.w3.org/2000/svg">
<path d="M53.2568 0H39.9486C36.0189 0 32.8124 3.2065 32.8124 7.13627V15.8637C32.8124 19.7935 36.0189 23 39.9486 23H53.2568C57.1866 23 60.3931 19.7935 60.3931 15.8637V7.13627C60.3931 3.2065 57.1866 0 53.2568 0ZM56.1499 15.8396C56.1499 17.4308 54.848 18.7086 53.2809 18.7086H39.9728C38.3816 18.7086 37.1038 17.4067 37.1038 15.8396V7.13627C37.1038 5.54507 38.4057 4.2673 39.9728 4.2673H53.2809C54.8721 4.2673 56.1499 5.56918 56.1499 7.13627V15.8396Z" fill="black"/>
<path d="M26.2547 0.144653L23.8197 1.39832V6.50943L26.2306 5.27987V22.8553H30.4979V0.144653H26.2547Z" fill="black"/>
<path d="M19.1185 8.89624H16.7558C16.0325 8.89624 15.4539 9.47486 15.4539 10.2222V11.7652C15.4539 12.4403 16.0325 13.043 16.7558 13.043H19.1185C19.8418 13.043 20.4204 12.4644 20.4204 11.7411V10.1981C20.4204 9.49896 19.8177 8.89624 19.1185 8.89624ZM19.6489 11.7411C19.6489 12.0304 19.4078 12.2715 19.1185 12.2715H16.7558C16.4665 12.2715 16.2254 12.0304 16.2254 11.7411V10.1981C16.2254 9.90882 16.4665 9.66773 16.7558 9.66773H19.1185C19.4078 9.66773 19.6489 9.90882 19.6489 10.1981V11.7411Z" fill="black"/>
<path d="M3.59224 8.92029H4.38784V13.0429H3.59224V11.3553H0.795598V13.0429H0V8.92029H0.795598V10.6561H3.59224V8.92029Z" fill="black"/>
<path d="M6.50941 8.92029H9.30605V9.69178H6.50941C6.2201 9.69178 5.97901 9.93287 5.97901 10.2222V10.6561H9.18551V11.3553H5.97901V11.7652C5.97901 12.0545 6.2201 12.2955 6.50941 12.2955H9.30605V13.067H6.50941C5.78614 13.067 5.20752 12.4884 5.20752 11.7652V10.2222C5.23163 9.4989 5.81024 8.92029 6.50941 8.92029Z" fill="black"/>
<path d="M14.7064 10.1498C14.7064 9.4748 14.1519 8.92029 13.4769 8.92029H10.174V13.0429H10.9695V11.3312H12.9224L13.9108 13.0429H14.8752L13.8626 11.283C14.3448 11.1383 14.7064 10.6802 14.7064 10.1498ZM13.4528 10.632H10.9695V9.66767H13.4528C13.718 9.66767 13.935 9.88465 13.935 10.1498C13.935 10.415 13.718 10.632 13.4528 10.632Z" fill="black"/>
<path d="M67.6499 13.0431H64.7086C64.5157 13.0431 64.3711 12.8743 64.3711 12.7055V9.25794C64.3711 9.06506 64.5157 8.92041 64.7086 8.92041H67.5294C68.2044 8.92041 68.783 9.47492 68.7589 10.15C68.7589 10.4393 68.6384 10.7286 68.4696 10.9215C68.7107 11.1384 68.8554 11.4519 68.8554 11.8135C68.8795 12.4885 68.325 13.0431 67.6499 13.0431ZM65.1426 12.2716H67.674C67.9151 12.2716 68.1321 12.0787 68.1321 11.8135C68.1321 11.5724 67.9151 11.3313 67.674 11.3313H65.1426V12.2716ZM65.1426 10.5839H67.6258C67.8428 10.5839 68.0357 10.367 68.0357 10.1259C68.0357 9.88477 67.8187 9.66779 67.5776 9.66779H65.1667L65.1426 10.5839Z" fill="black"/>
<path d="M83.4172 11.8376C83.3931 12.1028 83.1761 12.2957 82.9109 12.2957H80.6929C80.4036 12.2957 80.1866 12.0546 80.1866 11.7894V10.1982C80.1866 9.90888 80.4277 9.66779 80.6929 9.66779H82.9109C83.1761 9.66779 83.3931 9.86066 83.4172 10.1018H84.1887C84.1405 9.4267 83.586 8.92041 82.9109 8.92041H80.6929C79.9937 8.92041 79.4151 9.49903 79.4151 10.1982V11.7653C79.4151 12.4644 79.9937 13.0431 80.6929 13.0431H82.9109C83.586 13.0431 84.1646 12.5127 84.1887 11.8376H83.4172Z" fill="black"/>
<path d="M73.3637 13.0431H70.9528C70.2537 13.0431 69.675 12.4644 69.675 11.7653V8.92041H70.4465V11.7653C70.4465 12.0546 70.6876 12.2957 70.9528 12.2957H73.3637V13.0431Z" fill="black"/>
<path d="M74.7138 13.0431L75.1719 12.1992H77.8239L78.2578 13.0431H79.1258L77.0524 9.06506C77.0042 8.94452 76.8836 8.87219 76.739 8.87219H76.305C76.1845 8.87219 76.0639 8.94452 75.9916 9.04096L73.8459 13.0189H74.7138V13.0431ZM76.522 9.71601L77.4622 11.5001H75.5576L76.522 9.71601Z" fill="black"/>
<path d="M85.7317 11.8135L86.5514 11.1384L88.4319 13.0431H89.4927L87.13 10.6563L89.2516 8.92041H88.0462L85.7317 10.825V8.92041H84.9602V13.0431H85.7317V11.8135Z" fill="black"/>
</svg>
