<?xml version="1.0" encoding="UTF-8"?>
<svg width="82px" height="24px" viewBox="0 0 82 24" version="1.1" xmlns="http://www.w3.org/2000/svg" xmlns:xlink="http://www.w3.org/1999/xlink">
    <!-- Generator: Sketch 57.1 (83088) - https://sketch.com -->
    <title>wordmark-h8b</title>
    <desc>Created with Sketch.</desc>
    <g id="375" stroke="none" stroke-width="1" fill="none" fill-rule="evenodd">
        <g id="site-compare-selected-none-375" transform="translate(-68.000000, -638.000000)" fill="#333333">
            <g id="Module-2-selection" transform="translate(0.000000, 415.000000)">
                <g id="h8b" transform="translate(55.000000, 130.000000)">
                    <g id="logo-hero8blak" transform="translate(13.000000, 93.000000)">
                        <g id="Group-23">
                            <path d="M20.9777146,9.70212766 L18.2913891,9.70212766 C17.4775804,9.70212766 16.8158019,10.3491795 16.8158019,11.1799539 L16.8158019,12.8904507 C16.8158019,13.6501499 17.4775804,14.2978723 18.2913891,14.2978723 L20.9777146,14.2978723 C21.7915234,14.2978723 22.4533019,13.6501499 22.4533019,12.8549131 L22.4533019,11.1437458 C22.4533019,10.3491795 21.7915234,9.70212766 20.9777146,9.70212766 L20.9777146,9.70212766 Z M21.5844596,12.8549131 C21.5844596,13.1821269 21.3120435,13.4483234 20.9777146,13.4483234 L18.2913891,13.4483234 C17.9570603,13.4483234 17.6846442,13.1821269 17.6846442,12.8549131 L17.6846442,11.1437458 C17.6846442,10.8178731 17.9570603,10.5516766 18.2913891,10.5516766 L20.9777146,10.5516766 C21.3120435,10.5516766 21.5844596,10.8178731 21.5844596,11.1437458 L21.5844596,12.8549131 Z" id="Fill-1"></path>
                            <polygon id="Fill-3" points="4.19532185 9.70212766 5.02830189 9.70212766 5.02830189 14.2978723 4.19532185 14.2978723 4.19532185 12.4270501 1.24814703 12.4270501 1.24814703 14.2978723 0.415801887 14.2978723 0.415801887 9.70212766 1.24814703 9.70212766 1.24814703 11.6468689 4.19532185 11.6468689"></polygon>
                            <path d="M7.50694649,9.70212766 L10.6658019,9.70212766 L10.6658019,10.5541137 L7.50694649,10.5541137 C7.17923054,10.5541137 6.91134655,10.8185928 6.91134655,11.1456585 L6.91134655,11.6227976 L10.5264206,11.6227976 L10.5264206,12.4034484 L6.91134655,12.4034484 L6.91134655,12.8550144 C6.91134655,13.1807342 7.17923054,13.4458863 7.50694649,13.4458863 L10.6658019,13.4458863 L10.6658019,14.2978723 L7.50694649,14.2978723 C6.70533424,14.2978723 6.05330189,13.6504706 6.05330189,12.8550144 L6.05330189,11.1456585 C6.05330189,10.3495294 6.70533424,9.70212766 7.50694649,9.70212766" id="Fill-5"></path>
                            <path d="M16.1246613,11.0641271 L16.1246613,11.0560996 C16.1246613,10.308873 15.5258845,9.70212766 14.7894883,9.70212766 L11.1783019,9.70814829 L11.1783019,14.2838242 L12.0463628,14.2838242 L12.0463628,12.3966924 L14.1814487,12.3966924 L15.2579236,14.2978723 L16.3033019,14.2978723 L15.1983768,12.3525411 C15.7356218,12.177274 16.1246613,11.6655208 16.1246613,11.0641271 M14.7650079,11.6180247 L12.054964,11.6180247 L12.054964,10.5523739 L14.7650079,10.5523739 C15.0528178,10.5523739 15.2863738,10.7891852 15.2863738,11.0801821 L15.2863738,11.0888786 C15.2863738,11.3805445 15.0528178,11.6180247 14.7650079,11.6180247" id="Fill-7"></path>
                            <path d="M58.475202,14.2978723 L55.1259334,14.2978723 C54.9092969,14.2978723 54.7408019,14.1220457 54.7408019,13.9105148 L54.7408019,10.0840959 C54.7414896,9.87323865 54.9092969,9.70212766 55.1259334,9.70212766 L58.3438447,9.70212766 C59.1141077,9.70212766 59.7598907,10.3192051 59.7550766,11.0730365 C59.7523256,11.4031325 59.6292211,11.7062819 59.4284025,11.9420648 C59.6973069,12.1906473 59.8658019,12.5436479 59.8658019,12.9350474 C59.8658019,13.6861842 59.2427141,14.2978723 58.475202,14.2978723 L58.475202,14.2978723 Z M55.609411,13.4382754 L58.4772653,13.4409701 C58.7647384,13.4409701 58.999256,13.2132712 58.999256,12.9323528 C58.999256,12.650087 58.7647384,12.4041992 58.4765775,12.4041992 L55.609411,12.4041992 L55.609411,13.4382754 Z M55.609411,11.5735699 L58.431187,11.5735699 C58.6863366,11.5735699 58.885092,11.3263347 58.885092,11.0669736 C58.885092,10.7847078 58.6512622,10.5549879 58.3644767,10.5549879 L55.6100987,10.5549879 L55.609411,11.5735699 Z" id="Fill-9"></path>
                            <path d="M75.4434635,12.958203 C75.4129343,13.245227 75.1771454,13.467721 74.8926397,13.467721 L72.5178615,13.467721 C72.2125699,13.467721 71.9644394,13.2102733 71.9644394,12.8930008 L71.9644394,11.1285091 C71.9644394,10.8125811 72.2125699,10.5336234 72.5178615,10.5336234 L74.8926397,10.5336234 C75.1706498,10.5336234 75.3999432,10.7446902 75.4402157,11.020287 L76.2645028,11.020287 C76.2216321,10.2755034 75.6227411,9.70212766 74.8926397,9.70212766 L72.5165623,9.70212766 C71.75853,9.70212766 71.1408019,10.3407056 71.1408019,11.1258204 L71.1408019,12.8741796 C71.1408019,13.6599666 71.75853,14.2978723 72.5165623,14.2978723 L74.8926397,14.2978723 C75.6298862,14.2978723 76.2333241,13.7137416 76.2658019,12.958203 L75.4434635,12.958203 Z" id="Fill-11"></path>
                            <path d="M64.4783019,14.2978723 L61.7969662,14.2978723 C61.0163326,14.2978723 60.3783019,13.6586222 60.3783019,12.8741796 L60.3783019,9.70212766 L61.2265547,9.70212766 L61.2265547,12.8741796 C61.2265547,13.1907798 61.481633,13.4670488 61.7969662,13.4670488 L64.4783019,13.4670488 L64.4783019,14.2978723 Z" id="Fill-13"></path>
                            <path d="M65.9189741,14.2978723 L66.3982392,13.3783224 L69.2428255,13.3783224 L69.7065887,14.2978723 L70.6283019,14.2978723 L68.4018511,9.90528403 C68.3391979,9.78031613 68.2145373,9.70212766 68.0776044,9.70212766 L67.6073821,9.70212766 C67.4730329,9.70212766 67.3490183,9.7783113 67.2844273,9.90194265 L64.9908019,14.2978723 L65.9189741,14.2978723 Z M67.8405556,10.6143265 L68.8449452,12.5964377 L66.8058082,12.5964377 L67.8405556,10.6143265 Z" id="Fill-15"></path>
                            <polygon id="Fill-17" points="77.6453398 12.862293 78.5642363 12.1348523 80.6770175 14.2108158 81.8838349 14.2108158 79.2306064 11.6050286 81.6047626 9.72208632 80.2502411 9.72208632 77.6453398 11.7882018 77.6453398 9.72208632 76.7829384 9.72208632 76.7829384 14.2108158 77.6453398 14.2108158"></polygon>
                            <path d="M31.4431266,4.34127587 C30.4633364,4.34127587 29.5411049,4.82775849 29.5411049,6.20741291 L29.5411049,7.45193327 C29.5837888,8.28847746 29.7577582,9.39979424 31.73286,9.49374459 L43.9630989,9.49374459 C46.0300358,9.49374459 46.6360183,8.94291241 46.7155656,7.45193327 L46.7155656,6.20741291 C46.7155656,4.53368103 45.5087745,4.34127587 44.5658477,4.34127587 L31.4431266,4.34127587 Z M31.3105477,14.0985986 C29.6956725,14.0985986 28.959698,14.8920286 28.9577579,16.3785033 L28.9577579,17.5451607 C28.9577579,19.3263563 30.4419945,19.5638062 31.6416716,19.5638062 L44.5768421,19.5638062 C45.7758725,19.5638062 47.2989126,19.3237823 47.2989126,17.5451607 L47.2982659,16.3785033 C47.2872716,14.9242034 46.542243,14.0985986 44.9519433,14.0985986 L31.3105477,14.0985986 Z M30.6094966,24.0000643 C26.6838686,24.0000643 24.6156382,21.6287833 24.6033504,17.9769462 L24.6085242,16.2330733 C24.6447409,12.2022173 27.4677007,11.5168945 27.4677007,11.5168945 C27.4677007,11.5168945 25.4014105,10.3862729 25.3761882,7.76917656 C25.3761882,7.76917656 25.3729546,5.99892036 25.3729546,5.97961549 C25.3729546,2.08775452 27.2672156,0.0993533267 31.5614775,0.0993533267 L44.6647969,0.0993533267 C49.5242975,0.0993533267 50.8817757,2.67783992 50.8817757,5.97961549 L50.8798355,7.76917656 C50.8306844,10.4429005 48.7889698,11.5168945 48.7889698,11.5168945 C48.7889698,11.5168945 51.601582,12.1938518 51.6442659,16.2330733 C51.6449126,16.3090058 51.6572004,17.9769462 51.6572004,17.9769462 C51.6436192,21.6281398 49.6238933,24.0000643 45.698912,24.0000643 L30.6094966,24.0000643 Z" id="Fill-20"></path>
                        </g>
                    </g>
                </g>
            </g>
        </g>
    </g>
</svg>