<?xml version="1.0" encoding="utf-8"?>
<!-- Generator: Adobe Illustrator 24.1.0, SVG Export Plug-In . SVG Version: 6.00 Build 0)  -->
<svg version="1.1" id="H7-BLK-Prefered" xmlns="http://www.w3.org/2000/svg" xmlns:xlink="http://www.w3.org/1999/xlink" x="0px"
	 y="0px" viewBox="0 0 610.63 182.76" style="enable-background:new 0 0 610.63 182.76;" xml:space="preserve">
<style type="text/css">
	.st0{fill:#111111;}
</style>
<g>
	<g>
		<path class="st0" d="M151.25,71.97h-17.71c-5.36,0-9.73,4.38-9.73,9.99v11.57c0,5.14,4.36,9.52,9.73,9.52h17.71
			c5.36,0,9.73-4.38,9.73-9.76V81.72C160.98,76.34,156.61,71.97,151.25,71.97 M155.25,93.29c0,2.21-1.8,4.01-4,4.01h-17.71
			c-2.21,0-4-1.8-4-4.01V81.72c0-2.21,1.8-4.01,4-4.01h17.71c2.21,0,4,1.8,4,4.01V93.29z"/>
		<polygon class="st0" points="34.84,72.04 40.79,72.04 40.79,103.07 34.84,103.07 34.84,90.43 13.79,90.43 13.79,103.07 
			7.84,103.07 7.84,72.04 13.79,72.04 13.79,85.17 34.84,85.17 		"/>
		<path class="st0" d="M56.74,72.05h21.07v5.74H56.74c-2.19,0-3.97,1.79-3.97,3.98V85h24.11v5.26H52.76v3.04
			c0,2.2,1.78,3.98,3.97,3.98h21.07v5.74H56.74c-5.35,0-9.7-4.36-9.7-9.73V81.78C47.04,76.42,51.39,72.05,56.74,72.05"/>
		<path class="st0" d="M118.13,81.24v-0.05c0-5.06-4.1-9.18-9.15-9.18l-24.75,0.04v31.02h5.95V90.27h14.64l7.38,12.89h7.16
			l-7.57-13.19C115.46,88.78,118.13,85.32,118.13,81.24 M108.81,84.99H90.23v-7.22h18.58c1.97,0,3.58,1.61,3.58,3.58v0.05
			C112.39,83.38,110.78,84.99,108.81,84.99"/>
	</g>
	<g>
		<path class="st0" d="M438.9,102.97h-22.09c-1.43,0-2.53-1.18-2.53-2.61V74.6c0-1.42,1.11-2.58,2.53-2.58h21.22
			c5.08,0,9.34,4.16,9.31,9.24c-0.02,2.22-0.83,4.26-2.16,5.85c1.78,1.67,2.89,4.05,2.89,6.68
			C448.07,98.85,443.96,102.97,438.9,102.97 M420,97.18l18.91,0.02c1.9,0,3.44-1.53,3.44-3.43c0-1.9-1.54-3.55-3.44-3.55H420V97.18z
			 M420,84.63h18.61c1.69,0,3-1.66,3-3.42c0-1.9-1.54-3.44-3.44-3.44h-18.16L420,84.63z"/>
		<path class="st0" d="M557.17,93.99c-0.22,1.93-1.86,3.44-3.84,3.44h-16.58c-2.13,0-3.87-1.74-3.87-3.87V81.65
			c0-2.14,1.74-4.02,3.87-4.02h16.58c1.94,0,3.54,1.43,3.82,3.29h5.76c-0.3-5.02-4.48-8.89-9.58-8.89h-16.59
			c-5.29,0-9.6,4.31-9.6,9.61v11.8c0,5.3,4.31,9.61,9.6,9.61h16.59c5.15,0,9.36-3.94,9.59-9.04H557.17z"/>
		<path class="st0" d="M481.67,103.03h-18.16c-5.29,0-9.61-4.31-9.61-9.6v-21.4h5.74v21.4c0,2.13,1.74,4,3.87,4h18.16V103.03z"/>
		<path class="st0" d="M491.95,103.03l3.37-6.24h19.97l3.26,6.24h6.47l-15.63-29.81c-0.44-0.85-1.32-1.38-2.28-1.38h-3.3
			c-0.95,0-1.82,0.52-2.27,1.36l-16.1,29.84H491.95z M505.44,78.04l7.06,13.45h-14.32L505.44,78.04z"/>
		<polygon class="st0" points="574.55,93.72 580.67,88.69 594.75,103.04 602.79,103.04 585.11,85.03 600.93,72.02 591.9,72.02 
			574.55,86.3 574.55,72.02 568.81,72.02 568.81,103.04 574.55,103.04 		"/>
	</g>
	<g>
		<path class="st0" d="M222.8,53.17c0-8.26,6.69-14.95,14.95-14.95h96.23c8.26,0,14.95,6.69,14.95,14.95v24.54H237.73
			c-8.23,0-14.92-6.69-14.92-14.96V53.17z M382.94,47.89c0-22.74-21.64-42.73-48.38-42.73h-97.4c-26.73,0-48.38,20-48.38,46.7V63
			c0,26.29,21.31,46.82,47.6,46.82h112.54v20.8c0,8.26-6.69,14.96-14.95,14.96l-137.72,0.03c0,19.12,15.5,32,34.63,32h103.68
			c24.55,0,48.38-17.67,48.38-48.34V47.89z"/>
	</g>
</g>
</svg>
