<svg width="1024" height="1024" viewBox="0 0 1024 1024" fill="none" xmlns="http://www.w3.org/2000/svg">
<rect width="1024" height="1024" rx="250" fill="#111111"/>
<path d="M383.787 431.633H438.497C438.497 431.633 438.564 496.567 438.684 531.173C438.707 537.152 439.097 543.221 440.208 549.088C443.159 564.677 452.754 574.332 467.95 578.295C482.14 581.994 496.412 581.858 510.496 577.888C528.072 572.935 537.983 560.683 541.256 543.048C542.555 536.065 543.103 528.863 543.148 521.751C543.344 490.657 543.23 431.635 543.23 431.635L598.188 431.307V628.347H543.335V594.994C543.335 594.994 540.197 599.063 539.567 599.916C524.567 620.072 503.469 627.297 479.55 628.399C463.272 629.146 447.22 627.788 431.927 621.62C408.75 612.274 395.349 594.451 388.674 570.86C384.53 556.198 383.621 541.168 383.599 526.047C383.555 493.027 383.787 431.633 383.787 431.633Z" fill="#F4F4F4"/>
<path d="M383.602 628.602L346.636 575.098C359.513 555.173 370.154 526.889 370.154 497.369C370.154 412.499 309.447 366.006 234.394 366.006C159.706 366.006 99 412.499 99 497.369C99 583.714 159.706 628.362 234.394 628.362C261.987 628.362 282.73 623.711 304.436 611.533L316.541 628.602H383.602ZM234.394 574.857C187.667 574.857 149.773 550.874 149.773 497.369C149.773 443.495 187.667 419.88 234.394 419.88C281.119 419.88 319.013 444.234 319.013 497.369C319.013 549.397 281.119 574.857 234.394 574.857Z" fill="#F4F4F4"/>
<path d="M625.675 431.632H680.632V628.579H625.675V431.632Z" fill="#F4F4F4"/>
<path d="M625.675 366H680.632V417.863H625.675V366Z" fill="#F4F4F4"/>
<path d="M919.439 431.649H844.199L762.783 513.301V366H708.114V628.596H763.072L762.927 608.738L763.072 588.879L802.245 549.309L857.939 628.596H925L841.909 509.443L919.439 431.649Z" fill="#F4F4F4"/>
<path d="M625.675 366H680.632V417.863H625.675V366Z" fill="#F4F4F4"/>
</svg>
