<?xml version="1.0" encoding="UTF-8"?>
<svg width="70px" height="25px" viewBox="0 0 70 25" version="1.1" xmlns="http://www.w3.org/2000/svg" xmlns:xlink="http://www.w3.org/1999/xlink">
    <!-- Generator: Sketch 57.1 (83088) - https://sketch.com -->
    <title>wordmark-max</title>
    <desc>Created with Sketch.</desc>
    <defs>
        <polygon id="path-1" points="6.59590898e-07 0.0245967742 27.9709756 0.0245967742 27.9709756 18.7689247 6.59590898e-07 18.7689247"></polygon>
        <polygon id="path-3" points="0.0203696871 0.0245967742 25.9711864 0.0245967742 25.9711864 24.7311425 0.0203696871 24.7311425"></polygon>
        <polygon id="path-5" points="0.0534196851 0.0245967742 23.4479316 0.0245967742 23.4479316 18.7689113 0.0534196851 18.7689113"></polygon>
    </defs>
    <g id="375" stroke="none" stroke-width="1" fill="none" fill-rule="evenodd">
        <g id="site-compare-selected-none-375" transform="translate(-233.000000, -638.000000)">
            <g id="Module-2-selection" transform="translate(0.000000, 415.000000)">
                <g id="max" transform="translate(219.000000, 105.000000)">
                    <g id="wordmark-max" transform="translate(14.000000, 118.000000)">
                        <g id="Group-3" transform="translate(0.000000, 0.109812)">
                            <mask id="mask-2" fill="white">
                                <use xlink:href="#path-1"></use>
                            </mask>
                            <g id="Clip-2"></g>
                            <path d="M4.5728314,18.4050806 L8.13374225,5.11704301 C8.15775388,5.16731183 12.466688,13.8872043 12.466688,13.8872043 C12.7097888,14.4745699 13.2075213,14.8458065 13.7520562,14.8458065 L16.7904089,14.8458065 C17.3349438,14.8458065 17.8325407,14.4745699 18.0756415,13.8872043 C18.0756415,13.8872043 22.3847112,5.16731183 22.4087229,5.11704301 L24.7246919,15.0835753 C24.8025601,15.4179839 25.259188,15.4745699 25.4176376,15.169328 L27.8588198,10.4655645 C27.9680252,10.2553495 27.9986841,10.0135484 27.9455058,9.78303763 L26.0089748,1.39244624 C25.824343,0.592177419 25.1056221,0.0245698925 24.2770174,0.0245698925 L21.6057578,0.0245698925 C20.8375213,0.0245698925 20.1325019,0.549704301 19.7747694,1.38841398 L15.2711647,10.0784677 L10.7676957,1.38841398 C10.4098275,0.549704301 9.7049438,0.0245698925 8.93670736,0.0245698925 L6.23085465,0.0245698925 C5.41812209,0.0245698925 4.70903295,0.57094086 4.50880039,1.35145161 L0.01225,18.2863978 C-0.0505600775,18.5310215 0.136106589,18.7689247 0.390874031,18.7689247 L4.09531202,18.7689247 C4.31942054,18.7689247 4.51531202,18.6195968 4.5728314,18.4050806" id="Fill-1" fill="#333333" mask="url(#mask-2)"></path>
                        </g>
                        <g id="Group-6" transform="translate(43.817829, 0.109812)">
                            <mask id="mask-4" fill="white">
                                <use xlink:href="#path-3"></use>
                            </mask>
                            <g id="Clip-5"></g>
                            <path d="M25.8763953,18.0861156 L18.5457946,9.09444892 L25.8255233,0.723077957 C26.0637403,0.449153226 25.8674419,0.0245564516 25.5022481,0.0245564516 L21.6384109,0.0245564516 C21.403314,0.0245564516 21.1797481,0.125362903 21.0252326,0.300900538 L16.0161628,5.99202957 L11.3712016,0.294314516 C11.2321512,0.12375 11.0225581,0.0245564516 10.8012984,0.0245564516 L6.8471124,0.0245564516 C6.49155039,0.0245564516 6.29457364,0.432620968 6.5175969,0.706948925 L13.3128876,9.06366935 L0.123449612,24.0491532 C-0.110833333,24.3154167 0.0800387597,24.7311425 0.436686047,24.7311425 L4.58662791,24.7311425 C4.81616279,24.7311425 5.03416667,24.6320833 5.18393411,24.4599059 L15.8543217,12.1893414 L20.9843992,18.4983468 C21.1235853,18.6694489 21.333314,18.7689113 21.5549806,18.7689113 L25.5472868,18.7689113 C25.9029845,18.7689113 26.0999612,18.3603091 25.8763953,18.0861156" id="Fill-4" fill="#333333" mask="url(#mask-4)"></path>
                        </g>
                        <g id="Group-9" transform="translate(26.453488, 0.109812)">
                            <mask id="mask-6" fill="white">
                                <use xlink:href="#path-5"></use>
                            </mask>
                            <g id="Clip-8"></g>
                            <path d="M8.67340698,10.7220027 L11.3785814,5.27294355 C11.6759457,4.67952957 11.9547248,4.38262097 12.4082326,4.38262097 L13.7286008,4.38262097 C14.2995891,4.38262097 14.6217791,5.24955645 14.6217791,5.24955645 L17.3767403,10.7220027 L8.67340698,10.7220027 Z M20.2314109,16.3918952 C20.3678837,16.6628629 20.7385039,16.7101747 20.9398217,16.4820833 L23.2985233,13.8113844 C23.4615853,13.6265726 23.4944147,13.3620565 23.3810039,13.1437769 L17.276624,1.39297043 C16.8421085,0.551706989 15.982845,0.0245564516 15.0463915,0.0245564516 L11.0307519,0.0245564516 C10.0959264,0.0245564516 9.2382907,0.54969086 8.80296124,1.38853495 L0.101120155,18.1543952 C-0.0445775194,18.4350403 0.161081395,18.7689113 0.479608527,18.7689113 L4.28714729,18.7689113 C4.52672093,18.7689113 4.74526744,18.6339651 4.85094574,18.4211962 L6.62604264,14.845793 L19.453,14.845793 L20.2314109,16.3918952 Z" id="Fill-7" fill="#333333" mask="url(#mask-6)"></path>
                        </g>
                    </g>
                </g>
            </g>
        </g>
    </g>
</svg>