<svg width="65" height="65" viewBox="0 0 65 65" fill="none" xmlns="http://www.w3.org/2000/svg">
<mask id="mask0_749_13150" style="mask-type:alpha" maskUnits="userSpaceOnUse" x="0" y="0" width="65" height="65">
<rect x="0.15625" y="0.0332031" width="64" height="64" fill="#C4C4C4"/>
</mask>
<g mask="url(#mask0_749_13150)">
</g>
<path d="M46.5763 38.2141L46.0026 37.731L46.0019 37.7318L46.5763 38.2141ZM49.6533 29.3924L50.3926 29.5187L50.393 29.5164L49.6533 29.3924ZM39.1475 16.9168L38.975 16.1869L38.9719 16.1876L39.1475 16.9168ZM31.7188 20.5708L32.2924 21.0539L31.7188 20.5708ZM19.9062 34.5981L19.3326 34.115C19.2187 34.2503 19.1562 34.4214 19.1562 34.5981H19.9062ZM19.9062 52.2622H19.1562C19.1562 52.6764 19.492 53.0122 19.9062 53.0122V52.2622ZM34.7812 52.2622V53.0122C35.0029 53.0122 35.2131 52.9142 35.3556 52.7445L34.7812 52.2622ZM51.7661 16.7864L51.0264 16.6624L51.7661 16.7864ZM47.1499 38.6972C47.7176 38.023 48.1915 37.0941 48.583 36.1311C48.979 35.1572 49.311 34.0969 49.5771 33.1237C49.8436 32.1486 50.047 31.2498 50.1838 30.5951C50.2522 30.2675 50.3041 30.0001 50.3391 29.8138C50.3565 29.7207 50.3698 29.6478 50.3787 29.5978C50.3832 29.5727 50.3866 29.5534 50.3889 29.5401C50.3901 29.5335 50.391 29.5284 50.3916 29.5248C50.3919 29.523 50.3921 29.5216 50.3923 29.5205C50.3924 29.52 50.3925 29.5196 50.3925 29.5193C50.3926 29.5192 50.3926 29.519 50.3926 29.5189C50.3926 29.5188 50.3926 29.5187 49.6533 29.3924C48.914 29.2662 48.9141 29.2661 48.9141 29.2661C48.9141 29.2661 48.9141 29.2661 48.914 29.2661C48.914 29.2662 48.914 29.2664 48.914 29.2667C48.9139 29.2672 48.9137 29.2682 48.9135 29.2695C48.913 29.2722 48.9123 29.2764 48.9113 29.2821C48.9093 29.2935 48.9062 29.3108 48.9021 29.3338C48.8939 29.3799 48.8814 29.4485 48.8648 29.5372C48.8315 29.7146 48.7816 29.9719 48.7154 30.2885C48.5831 30.9223 48.3866 31.7902 48.1302 32.7281C47.8733 33.6678 47.5592 34.6667 47.1935 35.5662C46.8233 36.4767 46.42 37.2353 46.0026 37.731L47.1499 38.6972ZM50.393 29.5164L52.5058 16.9103L51.0264 16.6624L48.9137 29.2685L50.393 29.5164ZM49.1611 13.7795L38.975 16.1869L39.32 17.6466L49.5061 15.2393L49.1611 13.7795ZM39.1475 16.9168C38.9719 16.1876 38.9718 16.1876 38.9716 16.1877C38.9715 16.1877 38.9714 16.1877 38.9712 16.1878C38.9709 16.1878 38.9705 16.1879 38.97 16.1881C38.969 16.1883 38.9677 16.1886 38.9661 16.189C38.9628 16.1898 38.9583 16.1909 38.9524 16.1924C38.9408 16.1952 38.924 16.1994 38.9024 16.2048C38.8593 16.2157 38.7968 16.2317 38.7173 16.2528C38.5582 16.2948 38.3306 16.3572 38.0519 16.4392C37.4955 16.6031 36.7314 16.8469 35.9022 17.1666C34.2867 17.7894 32.2646 18.7582 31.1451 20.0877L32.2924 21.0539C33.1431 20.0437 34.8354 19.1855 36.4418 18.5662C37.2234 18.2649 37.9471 18.0338 38.4757 17.8781C38.7396 17.8004 38.9538 17.7418 39.1009 17.7029C39.1745 17.6834 39.2313 17.6689 39.269 17.6593C39.2879 17.6546 39.302 17.6511 39.3111 17.6488C39.3157 17.6477 39.319 17.6469 39.321 17.6464C39.322 17.6462 39.3227 17.646 39.323 17.6459C39.3232 17.6459 39.3233 17.6459 39.3233 17.6459C39.3233 17.6459 39.3232 17.6459 39.3232 17.6459C39.3232 17.6459 39.3231 17.6459 39.1475 16.9168ZM31.1451 20.0877L19.3326 34.115L20.4799 35.0812L32.2924 21.0539L31.1451 20.0877ZM19.1562 34.5981V52.2622H20.6562V34.5981H19.1562ZM19.9062 53.0122H34.7812V51.5122H19.9062V53.0122ZM35.3556 52.7445L47.1506 38.6963L46.0019 37.7318L34.2069 51.7799L35.3556 52.7445ZM52.5058 16.9103C52.8308 14.9711 51.0747 13.3273 49.1611 13.7795L49.5061 15.2393C50.3759 15.0337 51.1741 15.7809 51.0264 16.6624L52.5058 16.9103Z" fill="#111111"/>
<path d="M42.6562 25.2466L14.6562 58.4966" stroke="#111111" stroke-width="1.5" stroke-linecap="round" stroke-linejoin="round"/>
<path d="M41.7812 43.9497H26.9062" stroke="#111111" stroke-width="1.5" stroke-linecap="round" stroke-linejoin="round"/>
<path d="M47.9063 35.6372H33.9062" stroke="#111111" stroke-width="1.5" stroke-linecap="round" stroke-linejoin="round"/>
<path d="M33.9063 35.6372L33.9062 19.0122" stroke="#111111" stroke-width="1.5" stroke-linecap="round" stroke-linejoin="round"/>
<path d="M26.9063 43.9497L26.9062 27.3247" stroke="#111111" stroke-width="1.5" stroke-linecap="round" stroke-linejoin="round"/>
</svg>
