<svg width="65" height="65" viewBox="0 0 65 65" fill="none" xmlns="http://www.w3.org/2000/svg">
<mask id="mask0_749_13161" style="mask-type:alpha" maskUnits="userSpaceOnUse" x="0" y="0" width="65" height="65">
<rect x="0.65625" y="0.533203" width="63" height="63" fill="#C4C4C4" stroke="white"/>
</mask>
<g mask="url(#mask0_749_13161)">
<mask id="mask1_749_13161" style="mask-type:alpha" maskUnits="userSpaceOnUse" x="-6" y="-7" width="77" height="78">
<rect x="-5.92383" y="-6.3667" width="76.8" height="76.8" fill="#C4C4C4"/>
</mask>
<g mask="url(#mask1_749_13161)">
<path d="M61.8066 54.8024C62.8227 53.0789 63.3621 51.2117 63.3747 49.4221" stroke="#111111" stroke-width="1.3" stroke-linecap="round"/>
<path d="M50.9805 60.9833C53.3169 60.9843 56.0395 60.4312 58.4536 58.5702C58.8126 58.2931 59.1527 58.0035 59.4759 57.7012" stroke="#111111" stroke-width="1.3" stroke-linecap="round"/>
<path d="M59.5299 47.8401C59.4995 48.8519 59.2161 49.8858 58.7102 50.8619C58.2841 51.6858 57.6984 52.4688 56.9721 53.1637C56.4441 53.6696 55.8396 54.1293 55.1699 54.5229C54.0542 55.1768 52.8744 55.5809 51.7178 55.7478" stroke="#111111" stroke-width="1.3" stroke-linecap="round"/>
<path d="M12.3784 3.87329C10.0682 4.00344 7.63524 4.85991 5.48671 6.45846C4.65962 7.07352 3.92595 7.76101 3.29199 8.49678" stroke="#111111" stroke-width="1.3" stroke-linecap="round"/>
<path d="M11.0107 8.45848C12.3364 7.79618 13.7512 7.51804 15.0706 7.67128" stroke="#111111" stroke-width="1.3" stroke-linecap="round"/>
<path d="M0.58887 14.1249C0.700127 13.1309 0.98247 12.1988 1.41386 11.3833" stroke="#111111" stroke-width="1.3" stroke-linecap="round"/>
<path d="M3.99342 17.9362C3.76775 15.456 5.03882 12.6641 7.51273 10.7738C7.67227 10.652 7.8339 10.5355 7.99764 10.4253" stroke="#111111" stroke-width="1.3" stroke-linecap="round"/>
<path fill-rule="evenodd" clip-rule="evenodd" d="M48.8716 28.2666C48.6155 31.1509 46.0702 33.2806 43.187 33.0255C40.3027 32.7705 38.172 30.2252 38.4281 27.3409C38.6831 24.4576 41.2284 22.3269 44.1127 22.582C46.996 22.8381 49.1267 25.3823 48.8716 28.2666Z" stroke="#111111" stroke-width="1.3" stroke-linecap="round"/>
<path fill-rule="evenodd" clip-rule="evenodd" d="M50.5764 17.0635L26.9909 14.9738C26.7904 14.8793 26.5437 14.6831 26.4598 14.4962L18.6801 13.8066C18.5657 13.9756 18.2876 14.1268 18.0735 14.1824L16.1873 14.0155C13.2401 13.7542 10.6392 15.9321 10.3778 18.8794L8.34368 41.832C8.14111 44.1086 9.82362 46.1175 12.1002 46.3191L47.7047 49.4742C50.652 49.7355 53.2529 47.5586 53.5143 44.6114L55.4413 22.8741C55.7027 19.9269 53.5248 17.3249 50.5764 17.0635Z" stroke="#111111" stroke-width="1.3" stroke-linecap="round"/>
<path fill-rule="evenodd" clip-rule="evenodd" d="M31.85 32.8249C31.5929 35.7229 33.7341 38.2797 36.631 38.5358L48.6699 39.6032C51.5668 39.8604 54.1247 37.7192 54.3818 34.8212L55.4482 22.7834C55.7054 19.8854 53.5642 17.3286 50.6673 17.0715L38.6284 16.0051C35.7304 15.7479 33.1736 17.8891 32.9175 20.786L31.85 32.8249Z" stroke="#111111" stroke-width="1.3" stroke-linecap="round"/>
<path fill-rule="evenodd" clip-rule="evenodd" d="M27.1013 37.1048L13.7619 35.9229C13.6087 35.9093 13.4943 35.7728 13.5079 35.6196L14.9532 19.3193C14.9658 19.1661 15.1023 19.0517 15.2555 19.0653L28.5959 20.2482C28.7481 20.2619 28.8625 20.3983 28.8489 20.5515L27.4046 36.8508C27.3899 37.004 27.2546 37.1184 27.1013 37.1048Z" stroke="#111111" stroke-width="1.3" stroke-linecap="round"/>
</g>
<path d="M-5.92383 -6.3667V-7.3667H-6.92383V-6.3667H-5.92383ZM70.8762 -6.3667H71.8762V-7.3667H70.8762V-6.3667ZM70.8762 70.4333V71.4333H71.8762V70.4333H70.8762ZM-5.92383 70.4333H-6.92383V71.4333H-5.92383V70.4333ZM-5.92383 -5.3667H70.8762V-7.3667H-5.92383V-5.3667ZM69.8762 -6.3667V70.4333H71.8762V-6.3667H69.8762ZM70.8762 69.4333H-5.92383V71.4333H70.8762V69.4333ZM-4.92383 70.4333V-6.3667H-6.92383V70.4333H-4.92383Z" fill="#111111"/>
</g>
</svg>
