<svg width="65" height="65" viewBox="0 0 65 65" fill="none" xmlns="http://www.w3.org/2000/svg">
<mask id="mask0_749_13121" style="mask-type:alpha" maskUnits="userSpaceOnUse" x="0" y="0" width="65" height="65">
<rect x="1.38125" y="0.758203" width="62.55" height="62.55" fill="#C4C4C4" stroke="#111111" stroke-width="1.45"/>
</mask>
<g mask="url(#mask0_749_13121)">
<path fill-rule="evenodd" clip-rule="evenodd" d="M45.1732 27.3516C45.1866 29.4574 43.491 31.1745 41.3852 31.1879C39.2794 31.2013 37.561 29.503 37.5489 27.3998C37.5355 25.294 39.2311 23.577 41.3369 23.5636C43.4427 23.5502 45.1598 25.2458 45.1732 27.3516Z" stroke="#111111" stroke-width="1.5" stroke-linecap="round"/>
<path fill-rule="evenodd" clip-rule="evenodd" d="M45.6362 19.1234L28.4172 19.2307C28.2657 19.177 28.0727 19.051 27.999 18.9224L22.3196 18.9572C22.2486 19.0886 22.0569 19.2146 21.9054 19.2709L20.5288 19.2803C18.3774 19.2937 16.6429 21.0496 16.6563 23.201L16.7609 39.9576C16.7716 41.6211 18.1281 42.9601 19.7902 42.9481L45.7837 42.7859C47.9364 42.7738 49.6696 41.0179 49.6562 38.8665L49.557 22.9959C49.5436 20.8445 47.7876 19.11 45.6362 19.1234Z" stroke="#111111" stroke-width="1.5" stroke-linecap="round"/>
<path fill-rule="evenodd" clip-rule="evenodd" d="M33.1625 31.8219C33.1759 33.9371 34.901 35.6421 37.0162 35.6273L45.8067 35.5737C47.9218 35.5603 49.6255 33.8339 49.6121 31.7187L49.5572 22.9295C49.5451 20.8143 47.82 19.1107 45.7034 19.1214L36.9143 19.1763C34.7991 19.1911 33.0941 20.9149 33.1075 23.0301L33.1625 31.8219Z" stroke="#111111" stroke-width="1.5" stroke-linecap="round"/>
<path fill-rule="evenodd" clip-rule="evenodd" d="M29.7444 33.3224L20.2445 33.3614C20.0349 33.3625 19.8612 33.2242 19.8612 33.0534L19.8115 23.3986C19.8102 23.229 19.9811 23.0895 20.1908 23.0884L29.6906 23.0493C29.9016 23.0482 30.074 23.1866 30.0754 23.3562L30.1236 33.0121C30.125 33.1818 29.954 33.3212 29.7444 33.3224Z" stroke="#111111" stroke-width="1.5" stroke-linecap="round"/>
<path d="M11.3062 20.2747V20.1568H10.0063V20.2747H11.3062ZM11.3062 20.1568C11.3062 17.1338 13.7568 14.6832 16.7798 14.6832V13.3832C13.0389 13.3832 10.0063 16.4158 10.0063 20.1568H11.3062Z" fill="#111111"/>
<path d="M8.30625 20.0332C8.30625 15.4216 12.0447 11.6832 16.6562 11.6832V10.3832C11.3267 10.3832 7.00625 14.7037 7.00625 20.0332H8.30625Z" fill="#111111"/>
<path d="M11.3062 42.0331V42.1511H10.0063V42.0331H11.3062ZM11.3062 42.1511C11.3062 45.1741 13.7568 47.6247 16.7798 47.6247V48.9247C13.0389 48.9247 10.0063 45.892 10.0063 42.1511H11.3062Z" fill="#111111"/>
<path d="M8.30625 42.2747C8.30625 46.8862 12.0447 50.6247 16.6562 50.6247V51.9247C11.3267 51.9247 7.00625 47.6042 7.00625 42.2747H8.30625Z" fill="#111111"/>
<path d="M54.1293 42.0331V42.1511H55.4293V42.0331H54.1293ZM54.1293 42.1511C54.1293 45.1741 51.6787 47.6247 48.6557 47.6247V48.9247C52.3967 48.9247 55.4293 45.892 55.4293 42.1511H54.1293Z" fill="#111111"/>
<path d="M57.1293 42.2747C57.1293 46.8862 53.3909 50.6247 48.7793 50.6247V51.9247C54.1088 51.9247 58.4293 47.6042 58.4293 42.2747H57.1293Z" fill="#111111"/>
<path d="M48.6559 14.7423L48.7739 14.7423L48.7739 13.4423L48.6559 13.4423L48.6559 14.7423ZM48.7739 14.7423C51.7969 14.7423 54.2475 17.1929 54.2475 20.2158L55.5475 20.2158C55.5475 16.4749 52.5148 13.4423 48.7739 13.4423L48.7739 14.7423Z" fill="#111111"/>
<path d="M48.8975 11.7423C53.509 11.7423 57.2475 15.4807 57.2475 20.0923L58.5475 20.0923C58.5475 14.7627 54.227 10.4423 48.8975 10.4423L48.8975 11.7423Z" fill="#111111"/>
</g>
</svg>
